<svg fill="currentColor" id="a" xmlns="http://www.w3.org/2000/svg" viewBox="0 0 2837.93 509.17">
    <path d="M0,295.94c14.94,1.87,28.37,3.67,41.83,5.21,16.2,1.85,32.46,2.91,48.73,4.02,33.32,2.28,66.64,.8,99.96,1.11,14.27,.13,28.48-1.42,42.72-2.35,11.3-.74,22.57-1.76,33.84-2.89,24.14-2.42,48.15-5.69,72.06-9.74,33.36-5.66,66.2-13.46,98.69-22.86,36.32-10.51,70.99-24.9,103.98-43.39,9.69-5.43,19.63-10.41,29.47-15.57,30.91-16.23,61.49-33.08,92.04-49.97,21.62-11.96,43.37-23.7,65.11-35.45,18.15-9.81,36.1-20.03,54.6-29.12,41.72-20.49,83.78-40.3,127.25-56.9,39.07-14.92,78.99-26.9,120.42-33.32C1053.14,1.25,1075.72,.17,1098.44,.01c39-.27,77.31,4.79,115.23,13.3,50.84,11.42,99.81,28.55,147.53,49.33,37.04,16.13,72.89,34.62,108.04,54.53,41.05,23.25,81.2,47.98,121.11,73.12,33.96,21.39,67.85,42.89,102.85,62.57,22.34,12.56,45.09,24.39,69.19,33.33,15.8,5.86,31.98,9.85,48.93,10.87,7.69,.46,15.36,1.2,23.06,1.07,22.95-.37,45.66-2.99,68.11-7.71,44.36-9.34,86.66-24.94,128.32-42.46,35.33-14.86,70.11-30.92,104.67-47.47,24.33-11.65,48.81-23.01,73.17-34.61,50.63-24.12,102.32-45.6,156-62.01,38.62-11.81,77.71-21.76,117.45-29.23,23.85-4.48,47.76-8.49,71.84-11.36,16.63-1.98,33.34-3.32,50.03-4.8,36.22-3.22,72.47-2.58,108.73-2.38,13.35,.07,26.67,1.4,40,2.29,17.88,1.19,35.64,3.31,53.35,5.82,10.7,1.52,21.32,3.57,31.87,6.5-5.55,0-11.18,.6-16.63-.14-8.83-1.2-17.65-.82-26.48-1.05-19.51-.51-39.01,.12-58.43,1.58-48.47,3.64-96.29,11.35-143.39,23.56-44.68,11.57-88.06,26.68-130.27,45.35-25.81,11.42-50.16,25.36-73.96,40.37-51.01,32.17-102,64.4-153.02,96.55-33.96,21.4-68.33,42.13-102.89,62.52-32.61,19.24-65.51,37.95-98.81,56.01-28.72,15.58-57.78,30.46-87.22,44.59-29.43,14.13-59.26,27.52-90.29,37.85-37.52,12.49-75.9,21.57-115.14,26.69-26.32,3.43-52.79,5.37-79.33,4.27-47.75-1.99-93.96-10.97-137.87-30.65-28.66-12.84-55.44-28.96-82.14-45.27-18.57-11.35-37-22.98-56.43-32.83-24.95-12.64-51.11-22.28-78.06-29.78-25.17-7.01-50.74-12.07-76.72-14.76-23.45-2.43-47-3.91-70.58-2.87-23.3,1.02-46.62,2.11-69.84,4.16-49.01,4.34-97.65,11.54-146.02,20.57-52.86,9.87-105.16,22.2-157.31,35.22-39.84,9.95-80.12,17.71-120.85,23.12-20,2.65-40.05,4.7-60.13,6.29-17.38,1.38-34.83,2.04-52.31,1.73-14.29-.26-28.6,.31-42.87-.27-15.37-.63-30.72-1.96-46.04-3.56-22.78-2.38-45.42-5.69-67.96-9.67-38.21-6.74-76.06-15.2-113.54-25.16-37.71-10.02-75.08-21.19-111.95-33.99-41.58-14.43-82.56-30.34-122.38-49.21-15.39-7.29-30.35-15.3-45.24-23.5-.93-.51-1.78-1.15-3.82-2.5Z" fill="currentColor"/>
</svg>