<?xml version="1.0" encoding="UTF-8"?><svg id="a" xmlns="http://www.w3.org/2000/svg" viewBox="0 0 2841.85 1136.74"><path d="M22.16,499.68c14.18-6.38,28.36-12.77,42.54-19.14,62.5-28.08,125.05-56.01,188.72-81.37,37.62-14.99,75.53-29.06,114.91-38.89,40.22-10.05,80.99-14.69,122.39-12.49,37.05,1.97,73.19,9.4,108.57,20.37,33.12,10.28,66.04,21.22,99.1,31.68,36.32,11.49,73.35,20.03,111.16,24.81,35.87,4.53,71.88,5.8,107.96,2.74,50.42-4.28,99.05-16.41,146.49-33.67,42.29-15.38,83.16-34.04,123.59-53.69,42.62-20.71,84.96-41.99,127.53-62.81,89.38-43.71,181.9-79.05,278.63-102.83,43.62-10.73,87.65-19.51,132.11-26.13,39.21-5.84,78.59-9.61,118.21-11.15,30.77-1.19,61.45-.11,92.07,2.39,73.11,5.96,142.47,25.83,208.49,57.48,53.45,25.62,108.83,46.35,164.74,65.77,52.32,18.18,105.48,33.64,158.98,47.89,23.03,6.14,46.55,9.59,70.31,11.82,26.91,2.53,53.81,2.75,80.7,.76,45.64-3.38,90.29-12.16,134.01-25.71,23.18-7.18,45.88-15.64,68.2-25.13,1.6-.68,3.2-1.36,5.68-1.18-2.14,2.3-4.26,4.61-6.42,6.88-20.33,21.37-43,40.03-66.85,57.3-49.99,36.19-103.29,66.35-161.03,88.45-37.97,14.54-77.24,23.88-117.33,30.33-46.14,7.42-92.55,9.47-139.14,7.58-28.25-1.14-56.36-4.19-84.3-8.68-39.3-6.33-78.52-13.25-117.95-18.72-33.7-4.68-67.58-8.34-101.49-11.2-26.14-2.2-52.44-3.18-78.68-3.44-70.81-.7-138.89,12.6-203.71,41.58-40,17.89-79.97,35.87-120.13,53.4-81.75,35.69-164.17,69.72-248.47,99.05-52.1,18.13-104.75,34.45-158.62,46.57-34.34,7.72-68.97,13.66-104.18,15.52-17.55,.92-35.13,2.17-52.69,2.03-88.61-.69-173.75-17.72-254.06-55.94-19.26-9.16-37.7-20.02-56.55-30.06-8.04-4.29-16.02-8.72-24.24-12.65-28.58-13.65-55.48-30.22-82.43-46.73-31.12-19.07-62.11-38.37-94.74-54.83-27.68-13.97-56.02-26.41-86.65-32.17-16.35-3.07-33.03-5.12-49.64-5.85-21.78-.96-43.66-.82-65.45,0-49.05,1.87-97.34,9.39-145.2,20.26-60.93,13.84-121.99,27.1-182.99,40.6-.63,.14-1.31,.02-1.96,.02l-.21-.84Z"/></svg>