<?xml version="1.0" encoding="UTF-8"?><svg id="a" xmlns="http://www.w3.org/2000/svg" viewBox="0 0 2867.5 1010.34"><path d="M0,481.52c6.88-6.22,14.16-10.51,21.02-15.32,36.74-25.8,73.65-51.36,110.44-77.08,50.41-35.24,101.15-70,152.53-103.81,44.73-29.44,89.86-58.26,135.65-86.04,37.59-22.8,75.85-44.41,114.39-65.56,56.05-30.77,113.73-58.01,173.48-80.75,51.94-19.77,105.35-34.47,160.13-43.86,22.79-3.91,45.79-6.21,68.9-7.84,23.86-1.68,47.69-1.35,71.51-.84,20.05,.43,40.06,2.82,59.95,5.73,34.04,5,67.71,11.86,100.98,20.61,52.55,13.82,103.88,31.21,154.05,52.13,38.03,15.86,75.15,33.6,111.64,52.66,32.34,16.89,63.83,35.29,94.69,54.79,56.8,35.88,110.93,75.55,164.31,116.24,35.69,27.2,71.01,54.9,105.85,83.19,29.39,23.86,58.65,47.87,87.69,72.16,23.83,19.93,47.25,40.36,70.86,60.56,30.75,26.31,62.81,50.93,95.71,74.48,31,22.19,62.42,43.77,94.33,64.63,51.67,33.79,104.08,66.4,157.54,97.32,42.51,24.59,85.51,48.24,129.09,70.9,44.23,23,89.26,44.22,135.43,62.95,28.4,11.52,57.59,20.9,87.15,29.06,37.23,10.28,74.85,18.79,113.03,24.62,17.31,2.64,34.69,4.86,52.15,6.5,12.4,1.16,24.75,.91,37.12,1.17,2.23,.05,4.47,0,7.87,0-2.6,2.9-5,3.13-7.09,3.81-35.87,11.7-72.58,19.96-109.61,26.94-25.28,4.76-50.72,8.51-76.19,11.98-17.59,2.4-35.25,4.3-52.9,6.25-16.94,1.87-33.91,3.59-50.88,5.2-8.37,.8-16.77,1.19-25.16,1.81-10.01,.74-20.02,1.52-30.03,2.29-1.86,.14-3.72,.34-5.59,.43-40.66,2.01-81.34,1.42-122.02,1.53-15.91,.04-31.79-.98-47.62-1.84-27.03-1.48-54.03-3.58-81-6.26-59.84-5.94-119.19-14.86-178.07-26.99-44.69-9.21-88.82-20.64-132.55-33.68-39.54-11.8-77.78-26.74-115.05-44.45-40.79-19.38-80.66-40.45-120.21-62.21-34.63-19.06-68.8-38.88-102.67-59.24-31.26-18.79-62.36-37.87-92.93-57.77-20.77-13.52-41.7-26.83-62.25-40.68-40.53-27.31-80.5-55.41-119.78-84.51-33.84-25.08-69.32-47.71-105.96-68.55-23.8-13.53-47.98-26.31-72.62-38.22-33.07-15.99-66.87-30.31-101.33-43.05-42.17-15.6-85.2-28.38-128.98-38.58-34.86-8.12-70.04-14.54-105.62-18.61-22.51-2.57-45.06-4.44-67.7-5.64-43.02-2.28-86.04-1.27-129.05-.8-18.14,.2-36.36,1.76-54.51,3.43-19.77,1.83-39.54,3.59-59.25,5.95-22.97,2.75-45.9,5.79-68.79,9.17-77.76,11.49-154.74,27.21-231.74,42.79-60.51,12.24-120.98,24.69-181.47,37.02-7.79,1.59-15.62,2.98-23.42,4.47-1.57,.3-3.14,.79-5.46-.57Z"/></svg>