<?xml version="1.0" encoding="UTF-8"?><svg id="a" xmlns="http://www.w3.org/2000/svg" viewBox="0 0 2766.03 1608.63"><defs><style>.b{fill:#fff;}</style></defs><path class="b" d="M2766.03,671.21c-1.28,.37-1.92,.74-2.54,.7-21.58-1.11-43.16-2.27-64.74-3.41-3.32-.18-6.65-.41-9.98-.42-13.33-.05-26.67,.36-39.98-.1-30-1.03-59.95,.91-89.83,2.47-38.17,2-76.25,5.81-114.2,10.86-59.52,7.92-118.38,19.05-176.48,34.09-73.33,18.99-144.71,43.65-214.08,74.2-51.3,22.59-100.97,48.31-149.04,77.04-39.18,23.41-77.18,48.65-113.88,75.9-30.77,22.85-60.71,46.71-89.97,71.4-17.29,14.59-33.53,30.41-50.33,45.57-25.2,22.74-49.96,45.96-75.54,68.28-20.57,17.95-41.07,35.96-61.93,53.57-34.35,29.01-69.25,57.33-104.75,84.92-33.67,26.18-67.95,51.54-102.91,75.94-51.37,35.85-103.93,69.91-158.35,101.01-58.48,33.42-118.42,63.88-180.69,89.71-50.57,20.98-102.25,38.56-155.3,51.97-35.85,9.07-72.26,15.25-109.06,19.54-37.88,4.42-75.88,5.14-113.71,2.99-58.87-3.35-116.04-15.81-170.51-39.25-41.21-17.73-80.69-38.49-114.6-68.24-27.06-23.75-51.58-50.04-72.99-79.11-33.32-45.26-60.78-93.87-83.99-145.03-22.89-50.47-41.78-102.43-57.75-155.42-19.92-66.12-34.64-133.48-46.71-201.45-5.83-32.8-10.8-65.73-15.28-98.72-3.49-25.72-6.11-51.56-8.83-77.37-2.69-25.47-5.19-50.96-7.47-76.48-.91-10.27-1.65-20.61-2.01-30.86-.56-16.31-2.01-32.56-2.82-48.84-1.77-35.57-2.45-71.18-4.09-106.73-2.59-55.98-.76-111.92-1.53-167.87-.02-1.33,.08-2.67,.05-4-.99-38.32,1.85-76.57,2.53-114.85,.4-22.6,.27-45.3,1.7-67.86,1.85-29.19,2.81-58.53,9.45-87.25,2.64-11.43,6.55-22.38,11.08-33.13,2.66-6.33,4.93-6.58,8.8-1.06,5.73,8.18,11.11,16.6,16.68,24.9,25.8,38.51,54.01,75.23,83.11,111.26,13.59,16.82,27.96,33.02,42.27,49.26,24.03,27.25,49.12,53.45,75.18,78.74,33.96,32.96,69.74,63.79,107.07,92.89,43.18,33.67,89.75,62.23,135.95,91.37,31.86,20.1,64.41,39.04,98.18,55.69,52.71,25.98,107.44,46.75,164.16,62.41,52.74,14.56,106.12,25.91,160.05,34.76,33.17,5.44,66.51,9.77,99.96,13.22,25.15,2.59,50.32,4.59,75.56,6.26,39.64,2.62,79.26,1.73,118.85,1.05,30.55-.52,61.13-3.01,91.57-5.95,43.37-4.2,86.68-9.12,129.89-14.91,80.85-10.84,161.28-24.46,242.15-35.09,33.65-4.42,67.27-9.23,100.98-13.1,24.77-2.84,49.68-4.54,74.55-6.58,29.5-2.43,59.01-4.57,88.57-6.31,24.9-1.47,49.82-2.52,74.72-3.92,60.94-3.43,121.89-1.47,182.83-1.28,19.52,.06,39.21,.85,58.75,3.06,10.56,1.2,21.23,1.37,31.85,2.2,30.53,2.39,60.92,5.81,91.29,9.67,49.96,6.34,99.3,15.86,148.27,27.44,21.73,5.14,43.16,11.39,64.5,17.96,40.47,12.46,80.26,26.78,119.05,43.78,17.69,7.75,35.27,15.8,52.36,24.84,1.41,.75,3.1,1.21,3.9,3.69Z"/></svg>